<?xml version="1.0" encoding="UTF-8" standalone="no"?>
<svg xmlns="http://www.w3.org/2000/svg" fill="#ffffff" height="24" viewBox="0 0 48 48" width="24"><path d="M26.1 0L33 11.52H19.6L13.6.1a13.42 13.42 0 012.1-.1h10.4zM9.9.7l5.8 10.82H.4A13.09 13.09 0 014.1 4 12 12 0 019.9.7zM30.1 0h1.6c6 0 9.3 1.2 12.2 4.11a12.51 12.51 0 013.7 7.41H37zm1.7 29.06l-11.2-6.51A1.72 1.72 0 0018 24v13.08a1.79 1.79 0 002.5 1.6l.1-.1 11.2-6.51a1.7 1.7 0 00.1-2.91l-.1-.1-11.2-6.51zM0 15h48v16.77c0 6-1.2 9.32-4.1 12.22-2.8 2.71-6 4-11.7 4h-16c-6 0-9.3-1.2-12.2-4.11-2.7-2.8-4-6-4-11.72V15z"></path></svg>